<mxfile host="app.diagrams.net" agent="Mozilla/5.0 (Windows NT 10.0; Win64; x64) AppleWebKit/537.36 (KHTML, like Gecko) Chrome/139.0.0.0 Safari/537.36" version="28.2.0">
  <diagram name="Page-1" id="845v6Q0z34HlG9M7tg0O">
    <mxGraphModel dx="1042" dy="510" grid="1" gridSize="10" guides="1" tooltips="1" connect="1" arrows="1" fold="1" page="1" pageScale="1" pageWidth="827" pageHeight="1169" math="0" shadow="0">
      <root>
        <mxCell id="0" />
        <mxCell id="1" parent="0" />
        <mxCell id="_jO-ufw77GwBLv2Ocheg-35" style="edgeStyle=orthogonalEdgeStyle;rounded=0;orthogonalLoop=1;jettySize=auto;html=1;exitX=0.5;exitY=1;exitDx=0;exitDy=0;entryX=0.5;entryY=0;entryDx=0;entryDy=0;" edge="1" parent="1" source="_jO-ufw77GwBLv2Ocheg-1" target="_jO-ufw77GwBLv2Ocheg-3">
          <mxGeometry relative="1" as="geometry" />
        </mxCell>
        <mxCell id="_jO-ufw77GwBLv2Ocheg-1" value="start" style="ellipse;whiteSpace=wrap;html=1;" vertex="1" parent="1">
          <mxGeometry x="360" y="40" width="120" height="80" as="geometry" />
        </mxCell>
        <mxCell id="_jO-ufw77GwBLv2Ocheg-27" style="edgeStyle=orthogonalEdgeStyle;rounded=0;orthogonalLoop=1;jettySize=auto;html=1;exitX=0.5;exitY=1;exitDx=0;exitDy=0;" edge="1" parent="1" source="_jO-ufw77GwBLv2Ocheg-3">
          <mxGeometry relative="1" as="geometry">
            <mxPoint x="430" y="460" as="targetPoint" />
            <Array as="points">
              <mxPoint x="430" y="435" />
              <mxPoint x="431" y="435" />
            </Array>
          </mxGeometry>
        </mxCell>
        <mxCell id="_jO-ufw77GwBLv2Ocheg-33" style="edgeStyle=orthogonalEdgeStyle;rounded=0;orthogonalLoop=1;jettySize=auto;html=1;exitX=0;exitY=0.5;exitDx=0;exitDy=0;entryX=0.5;entryY=0;entryDx=0;entryDy=0;" edge="1" parent="1" source="_jO-ufw77GwBLv2Ocheg-3" target="_jO-ufw77GwBLv2Ocheg-31">
          <mxGeometry relative="1" as="geometry" />
        </mxCell>
        <mxCell id="_jO-ufw77GwBLv2Ocheg-3" value="login" style="rhombus;whiteSpace=wrap;html=1;" vertex="1" parent="1">
          <mxGeometry x="350" y="160" width="140" height="100" as="geometry" />
        </mxCell>
        <mxCell id="_jO-ufw77GwBLv2Ocheg-46" style="edgeStyle=orthogonalEdgeStyle;rounded=0;orthogonalLoop=1;jettySize=auto;html=1;exitX=0.5;exitY=1;exitDx=0;exitDy=0;entryX=0.5;entryY=0;entryDx=0;entryDy=0;" edge="1" parent="1" source="_jO-ufw77GwBLv2Ocheg-7" target="_jO-ufw77GwBLv2Ocheg-37">
          <mxGeometry relative="1" as="geometry" />
        </mxCell>
        <mxCell id="_jO-ufw77GwBLv2Ocheg-7" value="restarant name" style="shape=parallelogram;perimeter=parallelogramPerimeter;whiteSpace=wrap;html=1;fixedSize=1;" vertex="1" parent="1">
          <mxGeometry x="335" y="298" width="170" height="60" as="geometry" />
        </mxCell>
        <mxCell id="_jO-ufw77GwBLv2Ocheg-38" style="edgeStyle=orthogonalEdgeStyle;rounded=0;orthogonalLoop=1;jettySize=auto;html=1;" edge="1" parent="1" source="_jO-ufw77GwBLv2Ocheg-10" target="_jO-ufw77GwBLv2Ocheg-37">
          <mxGeometry relative="1" as="geometry" />
        </mxCell>
        <mxCell id="_jO-ufw77GwBLv2Ocheg-10" value="bill" style="shape=document;whiteSpace=wrap;html=1;boundedLbl=1;" vertex="1" parent="1">
          <mxGeometry x="340" y="760" width="170" height="80" as="geometry" />
        </mxCell>
        <mxCell id="_jO-ufw77GwBLv2Ocheg-11" style="edgeStyle=orthogonalEdgeStyle;rounded=0;orthogonalLoop=1;jettySize=auto;html=1;exitX=1;exitY=0.5;exitDx=0;exitDy=0;entryX=1;entryY=0.75;entryDx=0;entryDy=0;" edge="1" parent="1" source="_jO-ufw77GwBLv2Ocheg-7" target="_jO-ufw77GwBLv2Ocheg-7">
          <mxGeometry relative="1" as="geometry" />
        </mxCell>
        <mxCell id="_jO-ufw77GwBLv2Ocheg-12" style="edgeStyle=orthogonalEdgeStyle;rounded=0;orthogonalLoop=1;jettySize=auto;html=1;entryX=0.451;entryY=0.043;entryDx=0;entryDy=0;entryPerimeter=0;" edge="1" parent="1">
          <mxGeometry relative="1" as="geometry">
            <mxPoint x="416" y="160" as="sourcePoint" />
            <mxPoint x="415.69000000000005" y="173.01" as="targetPoint" />
          </mxGeometry>
        </mxCell>
        <mxCell id="_jO-ufw77GwBLv2Ocheg-29" value="Actor" style="shape=umlActor;verticalLabelPosition=bottom;verticalAlign=top;html=1;outlineConnect=0;" vertex="1" parent="1">
          <mxGeometry x="390" y="880" width="70" height="140" as="geometry" />
        </mxCell>
        <mxCell id="_jO-ufw77GwBLv2Ocheg-30" value="" style="shape=note;whiteSpace=wrap;html=1;backgroundOutline=1;darkOpacity=0.05;" vertex="1" parent="1">
          <mxGeometry x="400" y="1069" width="80" height="100" as="geometry" />
        </mxCell>
        <mxCell id="_jO-ufw77GwBLv2Ocheg-31" value="biryani" style="shape=parallelogram;perimeter=parallelogramPerimeter;whiteSpace=wrap;html=1;fixedSize=1;" vertex="1" parent="1">
          <mxGeometry x="30" y="260" width="170" height="60" as="geometry" />
        </mxCell>
        <mxCell id="_jO-ufw77GwBLv2Ocheg-32" value="grocaries" style="shape=parallelogram;perimeter=parallelogramPerimeter;whiteSpace=wrap;html=1;fixedSize=1;" vertex="1" parent="1">
          <mxGeometry x="590" y="250" width="170" height="60" as="geometry" />
        </mxCell>
        <mxCell id="_jO-ufw77GwBLv2Ocheg-34" style="edgeStyle=orthogonalEdgeStyle;rounded=0;orthogonalLoop=1;jettySize=auto;html=1;exitX=1;exitY=0.5;exitDx=0;exitDy=0;entryX=0.649;entryY=0.01;entryDx=0;entryDy=0;entryPerimeter=0;" edge="1" parent="1" source="_jO-ufw77GwBLv2Ocheg-3" target="_jO-ufw77GwBLv2Ocheg-32">
          <mxGeometry relative="1" as="geometry" />
        </mxCell>
        <mxCell id="_jO-ufw77GwBLv2Ocheg-37" value="conform order" style="rhombus;whiteSpace=wrap;html=1;" vertex="1" parent="1">
          <mxGeometry x="375" y="430" width="90" height="120" as="geometry" />
        </mxCell>
        <mxCell id="_jO-ufw77GwBLv2Ocheg-43" value="yes" style="text;html=1;align=center;verticalAlign=middle;resizable=0;points=[];autosize=1;strokeColor=none;fillColor=none;" vertex="1" parent="1">
          <mxGeometry x="430" y="408" width="40" height="30" as="geometry" />
        </mxCell>
        <mxCell id="_jO-ufw77GwBLv2Ocheg-49" value="address" style="shape=parallelogram;perimeter=parallelogramPerimeter;whiteSpace=wrap;html=1;fixedSize=1;" vertex="1" parent="1">
          <mxGeometry x="320" y="600" width="200" height="60" as="geometry" />
        </mxCell>
        <mxCell id="_jO-ufw77GwBLv2Ocheg-50" value="yes" style="text;html=1;align=center;verticalAlign=middle;resizable=0;points=[];autosize=1;strokeColor=none;fillColor=none;" vertex="1" parent="1">
          <mxGeometry x="240" y="178" width="40" height="30" as="geometry" />
        </mxCell>
        <mxCell id="_jO-ufw77GwBLv2Ocheg-51" value="yes" style="text;html=1;align=center;verticalAlign=middle;resizable=0;points=[];autosize=1;strokeColor=none;fillColor=none;" vertex="1" parent="1">
          <mxGeometry x="620" y="178" width="40" height="30" as="geometry" />
        </mxCell>
      </root>
    </mxGraphModel>
  </diagram>
</mxfile>
